# This file uses centimeters as units for non-parametric coordinates.

mtllib Plat_Plus.mtl
g default
v -39.272854 -0.000000 -0.456368
v -34.291939 -0.000000 -0.456368
v -39.272854 0.977966 -0.456368
v -34.291939 0.977966 -0.456368
v -39.272854 0.977966 -5.437315
v -34.291939 0.977966 -5.437315
v -39.272854 -0.000000 -5.437315
v -34.291939 -0.000000 -5.437315
v -29.307194 -0.000000 -5.437315
v -29.307194 -0.000000 -0.456368
v -29.307194 0.977966 -5.437315
v -29.307194 0.977966 -0.456368
v -39.272854 -0.000000 4.587888
v -34.291939 -0.000000 4.587888
v -34.291939 0.977966 4.587888
v -39.272854 0.977966 4.587888
v -39.272854 0.977966 -10.412112
v -34.291939 0.977966 -10.412112
v -34.291939 -0.000000 -10.412112
v -39.272854 -0.000000 -10.412112
v -44.307194 -0.000000 -5.437315
v -44.307194 -0.000000 -0.456368
v -44.307194 0.977966 -0.456368
v -44.307194 0.977966 -5.437315
vt 0.414581 0.189512
vt 0.414576 0.189512
vt 0.414576 0.218779
vt 0.565028 0.218779
vt 0.564054 0.218779
vt 0.564074 0.218779
vt 0.564073 0.189512
vt 0.415074 0.189512
vt 0.415052 0.189512
vt 0.414995 0.188665
vt 0.414995 0.217931
vt 0.564609 0.217084
vt 0.414651 0.189512
vt 0.414680 0.188687
vt 0.414680 0.217084
vt 0.564453 0.217931
vt 0.564167 0.188665
vt 0.415089 0.218779
vt 0.414553 0.217084
vt 0.564586 0.189512
vt 0.414134 0.218779
vt 0.564482 0.188687
vt 0.564088 0.189512
vt 0.414710 0.217931
vt 0.406236 0.417688
vt 0.544915 0.417688
vt 0.544915 0.557216
vt 0.406236 0.557216
vt 0.683701 0.417688
vt 0.683701 0.557216
vt 0.406236 0.278940
vt 0.544915 0.278940
vt 0.544915 0.696572
vt 0.406236 0.696572
vt 0.266069 0.557216
vt 0.266069 0.417688
vt 0.406236 0.557216
vt 0.544915 0.557216
vt 0.544915 0.418765
vt 0.406236 0.418557
vt 0.683701 0.557216
vt 0.683701 0.418765
vt 0.544915 0.278940
vt 0.406236 0.278940
vt 0.406236 0.696572
vt 0.544915 0.696572
vt 0.266069 0.418557
vt 0.266069 0.557216
vt 0.564511 0.189512
vt 0.564511 0.218779
vt 0.414651 0.218779
vt 0.564453 0.188665
vt 0.415074 0.218779
vt 0.564054 0.189512
vt 0.415108 0.218779
vt 0.415108 0.189512
vt 0.565028 0.189512
vt 0.414581 0.218779
vt 0.564581 0.189512
vt 0.564581 0.218779
vt 0.564609 0.188895
vt 0.415052 0.218779
vt 0.564110 0.218779
vt 0.564110 0.189512
vt 0.564167 0.217931
vt 0.415089 0.189512
vt 0.564088 0.218779
vt 0.414710 0.188665
vt 0.414553 0.188895
vt 0.564586 0.218779
vt 0.414134 0.189512
vt 0.564482 0.217084
vn 0.000000 0.000000 1.000000
vn 0.000000 0.000000 1.000000
vn 0.000000 0.000000 1.000000
vn 0.000000 0.000000 1.000000
vn 0.000000 1.000000 0.000000
vn 0.000000 1.000000 0.000000
vn 0.000000 1.000000 0.000000
vn 0.000000 1.000000 0.000000
vn 0.000000 0.000000 -1.000000
vn 0.000000 0.000000 -1.000000
vn 0.000000 0.000000 -1.000000
vn 0.000000 0.000000 -1.000000
vn 0.000000 -1.000000 0.000000
vn 0.000000 -1.000000 0.000000
vn 0.000000 -1.000000 0.000000
vn 0.000000 -1.000000 0.000000
vn 1.000000 0.000000 0.000000
vn 1.000000 0.000000 0.000000
vn 1.000000 0.000000 0.000000
vn 1.000000 0.000000 0.000000
vn -1.000000 0.000000 0.000000
vn -1.000000 0.000000 0.000000
vn -1.000000 0.000000 0.000000
vn -1.000000 0.000000 0.000000
vn 0.000000 -1.000000 0.000000
vn 0.000000 -1.000000 0.000000
vn 0.000000 -1.000000 0.000000
vn 0.000000 -1.000000 0.000000
vn 0.000000 0.000000 -1.000000
vn 0.000000 0.000000 -1.000000
vn 0.000000 0.000000 -1.000000
vn 0.000000 0.000000 -1.000000
vn 0.000000 1.000000 0.000000
vn 0.000000 1.000000 0.000000
vn 0.000000 1.000000 0.000000
vn 0.000000 1.000000 0.000000
vn 0.000000 0.000000 1.000000
vn 0.000000 0.000000 1.000000
vn 0.000000 0.000000 1.000000
vn 0.000000 0.000000 1.000000
vn 0.000000 -1.000000 0.000000
vn 0.000000 -1.000000 0.000000
vn 0.000000 -1.000000 0.000000
vn 0.000000 -1.000000 0.000000
vn 1.000000 0.000000 0.000000
vn 1.000000 0.000000 0.000000
vn 1.000000 0.000000 0.000000
vn 1.000000 0.000000 0.000000
vn 0.000000 1.000000 0.000000
vn 0.000000 1.000000 0.000000
vn 0.000000 1.000000 0.000000
vn 0.000000 1.000000 0.000000
vn -1.000000 0.000000 0.000000
vn -1.000000 0.000000 0.000000
vn -1.000000 0.000000 0.000000
vn -1.000000 0.000000 0.000000
vn 0.000000 1.000000 0.000000
vn 0.000000 1.000000 0.000000
vn 0.000000 1.000000 0.000000
vn 0.000000 1.000000 0.000000
vn 1.000000 0.000000 0.000000
vn 1.000000 0.000000 0.000000
vn 1.000000 0.000000 0.000000
vn 1.000000 0.000000 0.000000
vn 0.000000 -1.000000 0.000000
vn 0.000000 -1.000000 0.000000
vn 0.000000 -1.000000 0.000000
vn 0.000000 -1.000000 0.000000
vn -1.000000 0.000000 0.000000
vn -1.000000 0.000000 0.000000
vn -1.000000 0.000000 0.000000
vn -1.000000 0.000000 0.000000
vn 0.000000 -1.000000 0.000000
vn 0.000000 -1.000000 0.000000
vn 0.000000 -1.000000 0.000000
vn 0.000000 -1.000000 0.000000
vn 0.000000 0.000000 1.000000
vn 0.000000 0.000000 1.000000
vn 0.000000 0.000000 1.000000
vn 0.000000 0.000000 1.000000
vn 0.000000 1.000000 0.000000
vn 0.000000 1.000000 0.000000
vn 0.000000 1.000000 0.000000
vn 0.000000 1.000000 0.000000
vn 0.000000 0.000000 -1.000000
vn 0.000000 0.000000 -1.000000
vn 0.000000 0.000000 -1.000000
vn 0.000000 0.000000 -1.000000
s off
g pCube21
usemtl lambert4SG
f 13/1/1 14/59/2 15/60/3 16/58/4
f 3/25/5 4/26/6 6/27/7 5/28/8
f 17/5/9 18/55/10 19/56/11 20/54/12
f 7/37/13 8/38/14 2/39/15 1/40/16
f 10/9/17 9/64/18 11/63/19 12/62/20
f 21/13/21 22/49/22 23/50/23 24/51/24
f 2/39/25 8/38/26 9/41/27 10/42/28
f 8/17/29 6/65/30 11/11/31 9/10/32
f 6/27/33 4/26/34 12/29/35 11/30/36
f 4/19/37 2/69/38 10/61/39 12/12/40
f 1/40/41 2/39/42 14/43/43 13/44/44
f 2/20/45 4/70/46 15/3/47 14/2/48
f 4/26/49 3/25/50 16/31/51 15/32/52
f 3/21/53 1/71/54 13/57/55 16/4/56
f 5/28/57 6/27/58 18/33/59 17/34/60
f 6/18/61 8/66/62 19/7/63 18/6/64
f 8/38/65 7/37/66 20/45/67 19/46/68
f 7/23/69 5/67/70 17/53/71 20/8/72
f 7/37/73 1/40/74 22/47/75 21/48/76
f 1/22/77 3/72/78 23/15/79 22/14/80
f 3/25/81 5/28/82 24/35/83 23/36/84
f 5/24/85 7/68/86 21/52/87 24/16/88
