# This file uses centimeters as units for non-parametric coordinates.

mtllib Plat_Walkway.mtl
g default
v -8.859895 -0.000000 4.955744
v -3.878981 -0.000000 4.955744
v -8.859895 0.977966 4.955744
v -3.878981 0.977966 4.955744
v -8.859895 0.977966 -0.025203
v -3.878981 0.977966 -0.025203
v -8.859895 -0.000000 -0.025203
v -3.878981 -0.000000 -0.025203
v -8.859895 -0.000000 10.000000
v -3.878981 -0.000000 10.000000
v -3.878981 0.977966 10.000000
v -8.859895 0.977966 10.000000
v -8.859895 0.977966 -5.000000
v -3.878981 0.977966 -5.000000
v -3.878981 -0.000000 -5.000000
v -8.859895 -0.000000 -5.000000
v -8.859895 0.977966 -10.000000
v -3.878981 0.977966 -10.000000
v -3.878981 -0.000000 -10.000000
v -8.859895 -0.000000 -10.000000
vt 0.213024 0.522827
vt 0.213024 0.311092
vt 0.213024 0.340943
vt 0.213024 0.492977
vt 0.366991 0.492977
vt 0.366991 0.340943
vt 0.519026 0.340943
vt 0.519026 0.492977
vt 0.823489 0.492977
vt 0.823489 0.340943
vt 0.823489 0.674861
vt 0.823489 0.522827
vt 0.519026 0.522827
vt 0.519026 0.674861
vt 0.366991 0.311092
vt 0.366991 0.522827
vt 0.670872 0.340943
vt 0.670872 0.492977
vt 0.670872 0.674861
vt 0.670872 0.522827
vt 0.823489 0.311092
vt 0.976662 0.522827
vt 0.976662 0.492977
vt 0.670872 0.311092
vt 0.519026 0.311092
vt 0.062130 0.492977
vt 0.213024 0.674861
vt 0.062130 0.522827
vt 0.366991 0.674861
vn 0.000000 0.000000 1.000000
vn 0.000000 0.000000 1.000000
vn 0.000000 0.000000 1.000000
vn 0.000000 0.000000 1.000000
vn 0.000000 1.000000 0.000000
vn 0.000000 1.000000 0.000000
vn 0.000000 1.000000 0.000000
vn 0.000000 1.000000 0.000000
vn 0.000000 0.000000 -1.000000
vn 0.000000 0.000000 -1.000000
vn 0.000000 0.000000 -1.000000
vn 0.000000 0.000000 -1.000000
vn 0.000000 -1.000000 0.000000
vn 0.000000 -1.000000 0.000000
vn 0.000000 -1.000000 0.000000
vn 0.000000 -1.000000 0.000000
vn 1.000000 0.000000 0.000000
vn 1.000000 0.000000 0.000000
vn 1.000000 0.000000 0.000000
vn 1.000000 0.000000 0.000000
vn -1.000000 0.000000 0.000000
vn -1.000000 0.000000 0.000000
vn -1.000000 0.000000 0.000000
vn -1.000000 0.000000 0.000000
vn 0.000000 -1.000000 0.000000
vn 0.000000 -1.000000 0.000000
vn 0.000000 -1.000000 0.000000
vn 0.000000 -1.000000 0.000000
vn 1.000000 0.000000 0.000000
vn 1.000000 0.000000 0.000000
vn 1.000000 0.000000 0.000000
vn 1.000000 0.000000 0.000000
vn 0.000000 1.000000 0.000000
vn 0.000000 1.000000 0.000000
vn 0.000000 1.000000 0.000000
vn 0.000000 1.000000 0.000000
vn -1.000000 0.000000 0.000000
vn -1.000000 0.000000 0.000000
vn -1.000000 0.000000 0.000000
vn -1.000000 0.000000 0.000000
vn 0.000000 1.000000 0.000000
vn 0.000000 1.000000 0.000000
vn 0.000000 1.000000 0.000000
vn 0.000000 1.000000 0.000000
vn 1.000000 0.000000 0.000000
vn 1.000000 0.000000 0.000000
vn 1.000000 0.000000 0.000000
vn 1.000000 0.000000 0.000000
vn 0.000000 -1.000000 0.000000
vn 0.000000 -1.000000 0.000000
vn 0.000000 -1.000000 0.000000
vn 0.000000 -1.000000 0.000000
vn -1.000000 0.000000 0.000000
vn -1.000000 0.000000 0.000000
vn -1.000000 0.000000 0.000000
vn -1.000000 0.000000 0.000000
vn 0.000000 1.000000 0.000000
vn 0.000000 1.000000 0.000000
vn 0.000000 1.000000 0.000000
vn 0.000000 1.000000 0.000000
vn 1.000000 0.000000 0.000000
vn 1.000000 0.000000 0.000000
vn 1.000000 0.000000 0.000000
vn 1.000000 0.000000 0.000000
vn 0.000000 -1.000000 0.000000
vn 0.000000 -1.000000 0.000000
vn 0.000000 -1.000000 0.000000
vn 0.000000 -1.000000 0.000000
vn -1.000000 0.000000 0.000000
vn -1.000000 0.000000 0.000000
vn -1.000000 0.000000 0.000000
vn -1.000000 0.000000 0.000000
s off
g pCube40
usemtl lambert6SG
f 9/1/1 10/28/2 11/26/3 12/4/4
f 3/5/5 4/6/6 6/7/7 5/8/8
f 17/9/9 18/23/10 19/22/11 20/12/12
f 7/13/13 8/14/14 2/29/15 1/16/16
f 2/15/17 8/25/18 6/7/19 4/6/20
f 7/13/21 1/16/22 3/5/23 5/8/24
f 1/16/25 2/29/26 10/27/27 9/1/28
f 2/15/29 4/6/30 11/3/31 10/2/32
f 4/6/33 3/5/34 12/4/35 11/3/36
f 3/5/37 1/16/38 9/1/39 12/4/40
f 5/8/41 6/7/42 14/17/43 13/18/44
f 6/7/45 8/25/46 15/24/47 14/17/48
f 8/14/49 7/13/50 16/20/51 15/19/52
f 7/13/53 5/8/54 13/18/55 16/20/56
f 13/18/57 14/17/58 18/10/59 17/9/60
f 14/17/61 15/24/62 19/21/63 18/10/64
f 15/19/65 16/20/66 20/12/67 19/11/68
f 16/20/69 13/18/70 17/9/71 20/12/72
